<svg xmlns="http://www.w3.org/2000/svg" viewBox="0 0 500 560" role="img" aria-labelledby="title"><title>Minh họa chân dung</title><rect width="500" height="560" rx="245" fill="#e7ddd0"/><circle cx="250" cy="213" r="106" fill="#e6ad87"/><path d="M144 202c1-108 211-148 215 8-28-28-52-42-101-42-42 0-76 19-114 34Z" fill="#22323b"/><path d="M123 499c7-137 68-198 127-198s122 59 129 198" fill="#d36b4e"/><path d="M166 368c28 17 58 26 84 26s58-9 86-26v131H166Z" fill="#f5f0e8"/><circle cx="211" cy="215" r="7" fill="#22323b"/><circle cx="291" cy="215" r="7" fill="#22323b"/><path d="M222 260c20 14 39 14 58 0" fill="none" stroke="#9c4e40" stroke-width="6" stroke-linecap="round"/></svg>
